<?xml version="1.0" encoding="UTF-8"?>
<svg xmlns="http://www.w3.org/2000/svg" xmlns:xlink="http://www.w3.org/1999/xlink" width="20pt" height="20pt" viewBox="0 0 20 20" version="1.1">
<g id="surface1">
<path style=" stroke:none;fill-rule:nonzero;fill:rgb(100%,56.078431%,0%);fill-opacity:1;" d="M 2.332031 11.335938 L 3.664062 11.335938 L 3.664062 13.667969 C 3.664062 13.855469 3.8125 14.003906 3.996094 14.003906 C 4.085938 14.003906 4.171875 13.96875 4.234375 13.90625 L 6.800781 11.335938 L 7.328125 11.335938 L 7.328125 10.671875 L 6.664062 10.671875 C 6.574219 10.671875 6.488281 10.707031 6.425781 10.769531 L 4.332031 12.867188 L 4.332031 11.003906 C 4.332031 10.820312 4.183594 10.671875 3.996094 10.671875 L 2.332031 10.671875 C 1.414062 10.671875 0.667969 9.925781 0.667969 9.003906 L 0.667969 2.34375 C 0.667969 1.421875 1.414062 0.675781 2.332031 0.675781 L 12.992188 0.675781 C 13.914062 0.675781 14.65625 1.421875 14.660156 2.34375 L 14.660156 7.339844 L 15.324219 7.339844 L 15.324219 2.34375 C 15.324219 1.054688 14.28125 0.0117188 12.992188 0.0117188 L 2.332031 0.0117188 C 1.042969 0.0117188 0 1.054688 0 2.34375 L 0 9.003906 C 0 10.292969 1.042969 11.335938 2.332031 11.335938 Z M 2.332031 11.335938 "/>
<path style=" stroke:none;fill-rule:nonzero;fill:rgb(100%,56.078431%,0%);fill-opacity:1;" d="M 17.65625 8.007812 L 10.328125 8.007812 C 9.039062 8.007812 7.996094 9.050781 7.996094 10.339844 L 7.996094 15.003906 C 7.996094 16.289062 9.039062 17.332031 10.328125 17.335938 L 13.855469 17.335938 L 16.421875 19.902344 C 16.554688 20.03125 16.765625 20.03125 16.894531 19.902344 C 16.957031 19.839844 16.992188 19.753906 16.992188 19.667969 L 16.992188 17.335938 L 17.65625 17.335938 C 18.945312 17.332031 19.988281 16.289062 19.988281 15.003906 L 19.988281 10.339844 C 19.988281 9.050781 18.945312 8.007812 17.65625 8.007812 Z M 19.324219 15.003906 C 19.324219 15.921875 18.578125 16.667969 17.65625 16.667969 L 16.660156 16.667969 C 16.472656 16.667969 16.324219 16.816406 16.324219 17 L 16.324219 18.863281 L 14.226562 16.765625 C 14.167969 16.703125 14.082031 16.667969 13.992188 16.667969 L 10.328125 16.667969 C 9.410156 16.667969 8.664062 15.921875 8.664062 15.003906 L 8.664062 10.339844 C 8.664062 9.417969 9.410156 8.671875 10.328125 8.671875 L 17.65625 8.671875 C 18.578125 8.671875 19.324219 9.417969 19.324219 10.339844 Z M 19.324219 15.003906 "/>
<path style=" stroke:none;fill-rule:nonzero;fill:rgb(100%,56.078431%,0%);fill-opacity:1;" d="M 2.664062 2.675781 L 9.328125 2.675781 L 9.328125 3.339844 L 2.664062 3.339844 Z M 2.664062 2.675781 "/>
<path style=" stroke:none;fill-rule:nonzero;fill:rgb(100%,56.078431%,0%);fill-opacity:1;" d="M 10.660156 2.675781 L 12.660156 2.675781 L 12.660156 3.339844 L 10.660156 3.339844 Z M 10.660156 2.675781 "/>
<path style=" stroke:none;fill-rule:nonzero;fill:rgb(100%,56.078431%,0%);fill-opacity:1;" d="M 2.664062 4.675781 L 12.660156 4.675781 L 12.660156 5.339844 L 2.664062 5.339844 Z M 2.664062 4.675781 "/>
<path style=" stroke:none;fill-rule:nonzero;fill:rgb(100%,56.078431%,0%);fill-opacity:1;" d="M 7.328125 6.671875 L 12.660156 6.671875 L 12.660156 7.339844 L 7.328125 7.339844 Z M 7.328125 6.671875 "/>
<path style=" stroke:none;fill-rule:nonzero;fill:rgb(100%,56.078431%,0%);fill-opacity:1;" d="M 2.664062 6.671875 L 5.996094 6.671875 L 5.996094 7.339844 L 2.664062 7.339844 Z M 2.664062 6.671875 "/>
<path style=" stroke:none;fill-rule:nonzero;fill:rgb(100%,56.078431%,0%);fill-opacity:1;" d="M 2.664062 8.671875 L 7.328125 8.671875 L 7.328125 9.339844 L 2.664062 9.339844 Z M 2.664062 8.671875 "/>
<path style=" stroke:none;fill-rule:nonzero;fill:rgb(100%,56.078431%,0%);fill-opacity:1;" d="M 9.996094 10.339844 L 14.660156 10.339844 L 14.660156 11.003906 L 9.996094 11.003906 Z M 9.996094 10.339844 "/>
<path style=" stroke:none;fill-rule:nonzero;fill:rgb(100%,56.078431%,0%);fill-opacity:1;" d="M 15.992188 10.339844 L 17.992188 10.339844 L 17.992188 11.003906 L 15.992188 11.003906 Z M 15.992188 10.339844 "/>
<path style=" stroke:none;fill-rule:nonzero;fill:rgb(100%,56.078431%,0%);fill-opacity:1;" d="M 9.996094 12.335938 L 17.992188 12.335938 L 17.992188 13.003906 L 9.996094 13.003906 Z M 9.996094 12.335938 "/>
<path style=" stroke:none;fill-rule:nonzero;fill:rgb(100%,56.078431%,0%);fill-opacity:1;" d="M 9.996094 14.335938 L 17.992188 14.335938 L 17.992188 15.003906 L 9.996094 15.003906 Z M 9.996094 14.335938 "/>
</g>
</svg>
