<?xml version="1.0" encoding="UTF-8"?>
<svg xmlns="http://www.w3.org/2000/svg" xmlns:xlink="http://www.w3.org/1999/xlink" width="20pt" height="20pt" viewBox="0 0 20 20" version="1.1">
<g id="surface1">
<path style=" stroke:none;fill-rule:nonzero;fill:rgb(100%,100%,100%);fill-opacity:1;" d="M 19.378906 9.167969 L 0.628906 9.191406 C 0.285156 9.191406 0.00390625 9.472656 0.00390625 9.816406 C 0.00390625 10.160156 0.285156 10.441406 0.628906 10.441406 L 19.378906 10.417969 C 19.726562 10.417969 20.003906 10.136719 20.003906 9.792969 C 20.003906 9.449219 19.722656 9.167969 19.378906 9.167969 Z M 19.378906 9.167969 "/>
<path style=" stroke:none;fill-rule:nonzero;fill:rgb(100%,100%,100%);fill-opacity:1;" d="M 0.625 6.066406 L 19.375 6.042969 C 19.71875 6.042969 20 5.761719 20 5.417969 C 20 5.074219 19.71875 4.792969 19.375 4.792969 L 0.625 4.816406 C 0.28125 4.816406 0 5.097656 0 5.441406 C 0 5.785156 0.28125 6.066406 0.625 6.066406 Z M 0.625 6.066406 "/>
<path style=" stroke:none;fill-rule:nonzero;fill:rgb(100%,100%,100%);fill-opacity:1;" d="M 0.621094 14.855469 L 13.121094 14.839844 C 13.464844 14.839844 13.746094 14.558594 13.746094 14.214844 C 13.746094 13.871094 13.464844 13.589844 13.121094 13.589844 L 0.621094 13.605469 C 0.273438 13.605469 -0.00390625 13.886719 -0.00390625 14.230469 C -0.00390625 14.574219 0.277344 14.855469 0.621094 14.855469 Z M 0.621094 14.855469 "/>
</g>
</svg>
