<?xml version="1.0" encoding="UTF-8"?>
<svg xmlns="http://www.w3.org/2000/svg" xmlns:xlink="http://www.w3.org/1999/xlink" width="20pt" height="20pt" viewBox="0 0 20 20" version="1.1">
<g id="surface1">
<path style=" stroke:none;fill-rule:nonzero;fill:rgb(100%,56.078431%,0%);fill-opacity:1;" d="M 19.742188 13.445312 L 16.738281 10.4375 C 17.464844 9.480469 17.917969 8.332031 18.035156 7.132812 C 18.175781 5.65625 17.808594 4.164062 17 2.933594 C 16.910156 2.796875 16.726562 2.757812 16.59375 2.847656 C 16.457031 2.9375 16.417969 3.117188 16.507812 3.253906 C 18.042969 5.585938 17.71875 8.710938 15.746094 10.6875 C 13.4375 12.996094 9.683594 12.996094 7.375 10.6875 C 5.066406 8.378906 5.066406 4.625 7.375 2.316406 C 9.683594 0.0078125 13.4375 0.0078125 15.742188 2.316406 L 15.757812 2.332031 C 15.875 2.445312 16.058594 2.449219 16.171875 2.332031 C 16.289062 2.21875 16.289062 2.035156 16.175781 1.917969 L 16.160156 1.902344 C 13.621094 -0.632812 9.496094 -0.632812 6.960938 1.902344 C 6.878906 1.980469 6.804688 2.0625 6.730469 2.144531 L 0.292969 2.144531 C 0.132812 2.144531 0 2.277344 0 2.4375 L 0 3.734375 C 0 3.894531 0.132812 4.027344 0.292969 4.027344 C 0.453125 4.027344 0.585938 3.894531 0.585938 3.734375 L 0.585938 2.730469 L 6.257812 2.730469 C 6.035156 3.046875 5.84375 3.375 5.679688 3.71875 L 2.03125 3.71875 C 1.871094 3.71875 1.738281 3.847656 1.738281 4.011719 C 1.738281 4.171875 1.871094 4.304688 2.03125 4.304688 L 5.4375 4.304688 C 5.355469 4.539062 5.285156 4.777344 5.230469 5.019531 L 2.03125 5.019531 C 1.871094 5.019531 1.738281 5.152344 1.738281 5.3125 C 1.738281 5.472656 1.871094 5.605469 2.03125 5.605469 L 5.121094 5.605469 C 5.085938 5.84375 5.066406 6.082031 5.0625 6.320312 L 2.03125 6.320312 C 1.871094 6.320312 1.738281 6.453125 1.738281 6.613281 C 1.738281 6.777344 1.871094 6.90625 2.03125 6.90625 L 5.070312 6.90625 C 5.125 7.757812 5.34375 8.601562 5.726562 9.382812 L 5.234375 9.382812 C 5.074219 9.382812 4.941406 9.511719 4.941406 9.675781 L 4.941406 18.347656 C 4.941406 18.511719 5.074219 18.640625 5.234375 18.640625 L 7.578125 18.640625 C 7.738281 18.640625 7.871094 18.511719 7.871094 18.347656 L 7.871094 11.859375 C 8.136719 12.042969 8.410156 12.203125 8.691406 12.339844 L 8.691406 18.347656 C 8.691406 18.511719 8.824219 18.640625 8.984375 18.640625 L 11.328125 18.640625 C 11.488281 18.640625 11.621094 18.511719 11.621094 18.347656 L 11.621094 13.003906 C 11.851562 13 12.078125 12.988281 12.304688 12.960938 L 12.304688 17.488281 C 12.304688 17.648438 12.4375 17.78125 12.597656 17.78125 C 12.757812 17.78125 12.890625 17.648438 12.890625 17.488281 L 12.890625 12.867188 C 13.816406 12.675781 14.707031 12.277344 15.496094 11.679688 L 18.5 14.6875 C 18.664062 14.851562 18.886719 14.945312 19.121094 14.945312 C 19.355469 14.945312 19.578125 14.851562 19.742188 14.6875 C 20.085938 14.34375 20.085938 13.785156 19.742188 13.445312 Z M 7.285156 18.054688 L 5.527344 18.054688 L 5.527344 9.96875 L 6.054688 9.96875 C 6.308594 10.371094 6.609375 10.75 6.960938 11.101562 C 7.066406 11.207031 7.175781 11.308594 7.285156 11.40625 Z M 9.277344 18.054688 L 9.277344 12.59375 C 9.847656 12.804688 10.4375 12.933594 11.035156 12.980469 L 11.035156 18.054688 Z M 19.328125 14.273438 C 19.273438 14.328125 19.199219 14.359375 19.121094 14.359375 C 19.042969 14.359375 18.96875 14.328125 18.914062 14.273438 L 15.945312 11.304688 C 16.019531 11.238281 16.089844 11.171875 16.160156 11.101562 C 16.226562 11.03125 16.296875 10.960938 16.359375 10.890625 L 19.328125 13.859375 C 19.441406 13.972656 19.441406 14.15625 19.328125 14.273438 Z M 19.328125 14.273438 "/>
<path style=" stroke:none;fill-rule:nonzero;fill:rgb(100%,56.078431%,0%);fill-opacity:1;" d="M 12.597656 18.457031 C 12.4375 18.457031 12.304688 18.589844 12.304688 18.75 L 12.304688 19.414062 L 0.585938 19.414062 L 0.585938 5.003906 C 0.585938 4.84375 0.453125 4.710938 0.292969 4.710938 C 0.132812 4.710938 0 4.84375 0 5.003906 L 0 19.707031 C 0 19.867188 0.132812 20 0.292969 20 L 12.597656 20 C 12.761719 20 12.890625 19.867188 12.890625 19.707031 L 12.890625 18.75 C 12.890625 18.589844 12.761719 18.457031 12.597656 18.457031 Z M 12.597656 18.457031 "/>
<path style=" stroke:none;fill-rule:nonzero;fill:rgb(100%,56.078431%,0%);fill-opacity:1;" d="M 1.269531 12.019531 L 1.269531 18.347656 C 1.269531 18.511719 1.402344 18.640625 1.5625 18.640625 L 3.90625 18.640625 C 4.066406 18.640625 4.199219 18.511719 4.199219 18.347656 L 4.199219 12.019531 C 4.199219 11.859375 4.066406 11.726562 3.90625 11.726562 L 1.5625 11.726562 C 1.402344 11.726562 1.269531 11.859375 1.269531 12.019531 Z M 1.855469 12.3125 L 3.613281 12.3125 L 3.613281 18.054688 L 1.855469 18.054688 Z M 1.855469 12.3125 "/>
<path style=" stroke:none;fill-rule:nonzero;fill:rgb(100%,56.078431%,0%);fill-opacity:1;" d="M 4.222656 8.210938 C 4.382812 8.210938 4.515625 8.078125 4.515625 7.917969 C 4.515625 7.753906 4.382812 7.625 4.222656 7.625 L 2.03125 7.625 C 1.871094 7.625 1.738281 7.753906 1.738281 7.917969 C 1.738281 8.078125 1.871094 8.210938 2.03125 8.210938 Z M 4.222656 8.210938 "/>
<path style=" stroke:none;fill-rule:nonzero;fill:rgb(100%,56.078431%,0%);fill-opacity:1;" d="M 11.558594 1.171875 C 10.132812 1.171875 8.792969 1.726562 7.789062 2.730469 C 6.785156 3.738281 6.230469 5.074219 6.230469 6.5 C 6.230469 7.929688 6.785156 9.265625 7.789062 10.273438 C 8.792969 11.277344 10.132812 11.832031 11.558594 11.832031 C 12.984375 11.832031 14.324219 11.277344 15.328125 10.273438 C 16.335938 9.265625 16.890625 7.929688 16.890625 6.5 C 16.890625 5.074219 16.335938 3.738281 15.328125 2.730469 C 14.324219 1.726562 12.984375 1.171875 11.558594 1.171875 Z M 14.914062 9.859375 C 14.019531 10.753906 12.828125 11.246094 11.558594 11.246094 C 10.289062 11.246094 9.097656 10.753906 8.203125 9.859375 C 7.308594 8.964844 6.816406 7.769531 6.816406 6.5 C 6.816406 5.230469 7.308594 4.039062 8.203125 3.144531 C 9.128906 2.21875 10.34375 1.757812 11.558594 1.757812 C 12.773438 1.757812 13.992188 2.21875 14.914062 3.144531 C 15.808594 4.039062 16.304688 5.230469 16.304688 6.5 C 16.304688 7.769531 15.808594 8.964844 14.914062 9.859375 Z M 14.914062 9.859375 "/>
</g>
</svg>
